<?xml version="1.0" encoding="iso-8859-1"?>
<!-- Generator: Adobe Illustrator 19.0.0, SVG Export Plug-In . SVG Version: 6.00 Build 0)  -->
<svg version="1.1" id="Layer_1" xmlns="http://www.w3.org/2000/svg" xmlns:xlink="http://www.w3.org/1999/xlink" x="0px" y="0px"
	 viewBox="0 0 512.001 512.001" style="enable-background:new 0 0 512.001 512.001;" xml:space="preserve">
<path style="fill:#1E252B;" d="M262.252,56.578c-110.137,0-199.42,89.285-199.42,199.422s89.283,199.422,199.42,199.422
	S461.673,366.137,461.673,256S372.388,56.578,262.252,56.578z M262.252,272.309c-9.007,0-16.309-7.301-16.309-16.307
	c0-9.006,7.301-16.308,16.309-16.308c9.006,0,16.309,7.301,16.309,16.308C278.56,265.007,271.259,272.309,262.252,272.309z"/>
<g>
	<path style="fill:#004D7A;" d="M390.882,378.826c-0.652,0-1.305-0.238-1.82-0.718c-1.076-1.006-1.132-2.692-0.127-3.766
		c30.099-32.207,46.676-74.234,46.676-118.342c0-6.032-0.314-12.115-0.932-18.08c-0.152-1.464,0.911-2.773,2.375-2.926
		c1.463-0.162,2.775,0.913,2.925,2.377c0.638,6.147,0.961,12.416,0.961,18.629c0,45.465-17.087,88.785-48.113,121.98
		C392.306,378.541,391.595,378.826,390.882,378.826z"/>
	<path style="fill:#004D7A;" d="M262.252,434.689c-8.834,0-17.704-0.65-26.363-1.931c-1.455-0.217-2.461-1.571-2.246-3.028
		c0.216-1.456,1.564-2.461,3.026-2.246c8.401,1.244,17.008,1.874,25.582,1.874c25.999,0,50.993-5.611,74.288-16.676
		c1.333-0.63,2.919-0.066,3.551,1.263c0.631,1.331,0.066,2.92-1.264,3.552C314.811,428.905,289.048,434.689,262.252,434.689z"/>
	<path style="fill:#004D7A;" d="M184.781,416.77c-0.394,0-0.794-0.087-1.172-0.274c-45.445-22.307-79.432-62.948-93.247-111.499
		c-0.403-1.415,0.418-2.89,1.834-3.292c1.418-0.4,2.89,0.418,3.292,1.835c13.401,47.103,46.376,86.529,90.469,108.174
		c1.322,0.648,1.867,2.244,1.218,3.565C186.713,416.221,185.766,416.77,184.781,416.77z"/>
	<path style="fill:#004D7A;" d="M88.561,287.43c-1.281,0-2.412-0.927-2.626-2.233c-1.575-9.585-2.374-19.407-2.374-29.198
		c0-1.472,1.194-2.665,2.664-2.665c1.472,0,2.665,1.194,2.665,2.665c0,9.502,0.776,19.034,2.303,28.334
		c0.239,1.452-0.745,2.822-2.197,3.061C88.851,287.418,88.705,287.43,88.561,287.43z"/>
	<path style="fill:#004D7A;" d="M92.932,210.379c-0.242,0-0.487-0.034-0.731-0.103c-1.415-0.404-2.236-1.879-1.834-3.293
		c13.817-48.541,47.802-89.174,93.24-111.479c1.32-0.654,2.918-0.106,3.567,1.218c0.649,1.321,0.104,2.917-1.218,3.565
		c-44.085,21.642-77.057,61.064-90.462,108.156C95.161,209.614,94.093,210.379,92.932,210.379z"/>
	<path style="fill:#004D7A;" d="M384.538,132.05c-0.667,0-1.335-0.248-1.851-0.748c-32.485-31.382-75.256-48.664-120.434-48.664
		c-1.472,0-2.665-1.194-2.665-2.665c0-1.473,1.193-2.665,2.665-2.665c46.567,0,90.654,17.813,124.138,50.16
		c1.059,1.024,1.088,2.709,0.066,3.768C385.931,131.779,385.235,132.05,384.538,132.05z"/>
	<path style="fill:#004D7A;" d="M352.019,288.979c-0.283,0-0.572-0.047-0.856-0.141c-1.394-0.475-2.141-1.986-1.669-3.38
		c3.207-9.46,4.832-19.371,4.832-29.459c0-13.528-2.875-26.555-8.545-38.717c-0.623-1.334-0.045-2.918,1.289-3.54
		c1.336-0.624,2.92-0.046,3.541,1.29c6.001,12.872,9.046,26.653,9.046,40.967c0,10.671-1.721,21.158-5.114,31.168
		C354.167,288.279,353.13,288.979,352.019,288.979z"/>
	<path style="fill:#004D7A;" d="M262.603,353.054c-30.851,0-59.174-14.176-77.704-38.891c-0.883-1.177-0.644-2.848,0.533-3.732
		c1.178-0.881,2.848-0.641,3.731,0.534c17.514,23.361,44.283,36.76,73.44,36.76c15.407,0,30.644-3.894,44.064-11.258
		c1.29-0.709,2.91-0.236,3.62,1.054c0.708,1.29,0.236,2.909-1.054,3.617C295.028,348.933,278.905,353.054,262.603,353.054z"/>
	<path style="fill:#004D7A;" d="M179.153,214.511c-0.421,0-0.847-0.1-1.246-0.312c-1.3-0.688-1.796-2.302-1.106-3.601
		c9.435-17.798,24.558-32.543,42.578-41.522c1.317-0.657,2.918-0.121,3.574,1.197c0.656,1.316,0.12,2.917-1.197,3.574
		c-17.034,8.489-31.328,22.426-40.247,39.247C181.031,213.997,180.108,214.511,179.153,214.511z"/>
	<path style="fill:#004D7A;" d="M307.553,175.646c-0.43,0-0.864-0.104-1.269-0.323c-13.318-7.229-28.424-11.05-43.681-11.05
		c-6.223,0-12.444,0.627-18.489,1.863c-1.445,0.299-2.85-0.635-3.145-2.077c-0.295-1.441,0.635-2.849,2.077-3.144
		c6.397-1.309,12.977-1.973,19.557-1.973c16.143,0,32.128,4.044,46.224,11.696c1.293,0.704,1.774,2.321,1.071,3.614
		C309.416,175.143,308.499,175.646,307.553,175.646z"/>
	<path style="fill:#004D7A;" d="M331.579,194.229c-0.712,0-1.424-0.283-1.948-0.845c-2.97-3.177-6.195-6.172-9.586-8.901
		c-1.147-0.925-1.327-2.601-0.406-3.748c0.922-1.147,2.599-1.327,3.748-0.406c3.587,2.888,6.997,6.054,10.139,9.415
		c1.004,1.074,0.948,2.761-0.128,3.765C332.884,193.99,332.231,194.229,331.579,194.229z"/>
</g>
<path style="fill:#FFB819;" d="M262.252,198.216c-31.913,0-57.783,25.874-57.783,57.785c0,31.914,25.871,57.785,57.783,57.785
	s57.782-25.872,57.782-57.785C320.035,224.09,294.164,198.216,262.252,198.216z M262.252,272.309
	c-9.007,0-16.309-7.301-16.309-16.307c0-9.006,7.301-16.308,16.309-16.308c9.006,0,16.309,7.301,16.309,16.308
	C278.56,265.007,271.259,272.309,262.252,272.309z"/>
<g>
	<path style="fill:#D85C72;" d="M482.08,143.494L379.029,161.82v112.45c-4.852-0.9-10.262-0.929-15.976,0.086
		c-20.813,3.703-37.686,19.789-37.686,35.93c0,16.142,16.873,26.228,37.686,22.525c20.817-3.702,37.688-19.789,37.688-35.93V192.597
		l81.339-14.466v77.811c-4.85-0.898-10.261-0.928-15.974,0.088c-20.814,3.705-37.688,19.788-37.688,35.931
		c0,16.141,16.873,26.225,37.688,22.522c20.813-3.7,37.688-19.788,37.688-35.926V139.633L482.08,143.494z"/>
	<path style="fill:#D85C72;" d="M61.869,196.895v112.45c-4.852-0.899-10.262-0.929-15.976,0.087
		c-20.813,3.703-37.686,19.789-37.686,35.929c0,16.143,16.873,26.228,37.686,22.525c20.815-3.703,37.688-19.789,37.688-35.929
		V227.672l33.875-6.024v-34.638L61.869,196.895z"/>
</g>
<path style="fill:#022A3A;" d="M262.252,231.486c-13.517,0-24.515,10.997-24.515,24.514c0,13.516,10.997,24.514,24.515,24.514
	s24.515-10.997,24.515-24.514S275.769,231.486,262.252,231.486z M262.252,264.102c-4.467,0-8.102-3.634-8.102-8.101
	s3.635-8.101,8.102-8.101s8.102,3.634,8.102,8.101C270.354,260.467,266.719,264.102,262.252,264.102z M262.252,190.01
	c-36.387,0-65.989,29.604-65.989,65.992s29.603,65.992,65.989,65.992s65.988-29.604,65.988-65.992S298.638,190.01,262.252,190.01z
	 M262.252,305.579c-27.337,0-49.577-22.24-49.577-49.579s22.24-49.579,49.577-49.579s49.576,22.24,49.576,49.579
	S289.588,305.579,262.252,305.579z M509.063,133.343c-1.861-1.559-4.318-2.218-6.707-1.789l-65.749,11.693
	c-17.98-27.742-42.478-50.993-71.164-67.453c-31.261-17.939-66.946-27.421-103.193-27.421c-44.865,0-87.578,14.082-123.52,40.723
	c-33.89,25.12-58.923,59.174-72.643,98.715l-5.657,1.007c-3.917,0.696-6.77,4.101-6.77,8.079v103.573
	c-3.022,0.038-6.116,0.336-9.207,0.886C19.528,305.788,0,325.119,0,345.362c0,18.251,15.742,31.497,37.432,31.497
	c3.239,0,6.569-0.3,9.899-0.893c13.661-2.43,25.69-9.338,33.782-18.413c16.527,29.446,40.006,54.473,68.56,72.932
	c33.538,21.682,72.468,33.143,112.58,33.143c45.186,0,88.145-14.265,124.232-41.252c33.278-24.888,58.735-59.851,72.186-98.945
	c2.916-0.057,5.894-0.338,8.874-0.869c24.93-4.431,44.457-23.761,44.457-44.005V139.633
	C512,137.205,510.924,134.901,509.063,133.343z M75.375,227.673v104.285c0,12.115-14.159,24.868-30.919,27.85
	c-2.383,0.425-4.747,0.639-7.023,0.639c-14.442,0-21.019-7.819-21.019-15.084c0-12.115,14.159-24.868,30.918-27.85
	c2.371-0.421,4.726-0.636,6.997-0.636c2.089,0,4.123,0.182,6.045,0.537c2.398,0.449,4.868-0.201,6.743-1.758
	c1.874-1.559,2.959-3.871,2.959-6.31V203.772l39.175-6.967v17.968l-27.106,4.821C78.228,220.29,75.375,223.695,75.375,227.673z
	 M376.653,409.232c-33.227,24.85-72.786,37.984-114.402,37.984c-36.944,0-72.792-10.552-103.669-30.514
	c-29.201-18.878-52.615-45.223-67.927-76.301c0.732-2.77,1.131-5.597,1.131-8.444v-97.408l27.106-4.821
	c3.916-0.696,6.77-4.101,6.77-8.079V187.01c0-2.428-1.074-4.731-2.936-6.29c-1.861-1.559-4.316-2.216-6.707-1.789l-31.161,5.541
	c13.15-32.7,34.949-60.92,63.647-82.192c33.093-24.53,72.425-37.496,113.745-37.496c33.385,0,66.244,8.729,95.024,25.244
	c24.41,14.006,45.534,33.347,61.671,56.358l-41.354,7.355c-3.916,0.696-6.77,4.101-6.77,8.079v103.573
	c-3.021,0.038-6.114,0.336-9.206,0.885c-24.928,4.435-44.456,23.765-44.456,44.01c0,18.251,15.743,31.497,37.432,31.497
	c3.24,0,6.569-0.3,9.898-0.893c24.93-4.432,44.457-23.764,44.457-44.01v-97.407l34.033-6.053
	c6.422,18.536,9.922,37.879,10.419,57.659c-19.301,7.389-33.187,23.811-33.187,40.88c0,13.518,8.644,24.284,21.94,28.96
	C429.529,355.783,406.508,386.905,376.653,409.232z M495.587,278.557c0,12.115-14.159,24.867-30.918,27.847
	c-2.383,0.423-4.745,0.638-7.023,0.638c-14.443,0-21.02-7.818-21.02-15.081c0-12.114,14.159-24.869,30.917-27.851
	c4.553-0.81,9.03-0.844,13.044-0.1c2.397,0.448,4.868-0.201,6.742-1.758c1.874-1.56,2.959-3.871,2.959-6.31v-77.811
	c0-2.428-1.074-4.731-2.937-6.29c-1.861-1.559-4.316-2.216-6.707-1.789l-81.338,14.467c-3.916,0.697-6.769,4.101-6.769,8.079
	v104.284c0,12.117-14.159,24.87-30.919,27.851c-2.383,0.425-4.745,0.639-7.023,0.639c-14.442,0-21.019-7.819-21.019-15.084
	c0-12.116,14.159-24.869,30.916-27.85c2.372-0.422,4.728-0.636,6.998-0.636c2.089,0,4.123,0.181,6.043,0.537
	c2.4,0.446,4.87-0.2,6.744-1.758c1.875-1.559,2.96-3.871,2.96-6.31V168.697l108.352-19.269v129.129H495.587z M459.333,190.512
	l14.54-2.586v59.141c-1.381,0.018-2.778,0.096-4.182,0.221C468.893,227.86,465.424,208.834,459.333,190.512z"/>
<g>
</g>
<g>
</g>
<g>
</g>
<g>
</g>
<g>
</g>
<g>
</g>
<g>
</g>
<g>
</g>
<g>
</g>
<g>
</g>
<g>
</g>
<g>
</g>
<g>
</g>
<g>
</g>
<g>
</g>
</svg>
